<?xml version="1.0" encoding="UTF-8"?>
<!DOCTYPE svg PUBLIC "-//W3C//DTD SVG 1.1//EN" "http://www.w3.org/Graphics/SVG/1.1/DTD/svg11.dtd">
<!-- Creator: CorelDRAW (Versión de evaluación) -->
<svg width="322" height="87" viewBox="0 0 322 87" fill="none" xmlns="http://www.w3.org/2000/svg">
<path fill-rule="evenodd" clip-rule="evenodd" d="M226.428 7.60258C239.319 8.10076 243.515 15.1909 243.444 31.4879C243.373 47.785 237.73 54.6913 226.36 54.7974C214.99 54.9036 210.21 48.1048 209.413 31.4879C208.616 14.8711 213.538 7.10441 226.428 7.60258ZM226.68 13.7933C235.026 14.643 235.855 19.7682 236.11 31.4325C236.364 43.0968 235.026 48.568 226.63 48.6464C218.233 48.7247 216.838 43.6219 216.441 31.6281C216.044 19.6343 218.334 12.9437 226.68 13.7933Z" fill="#373435" stroke="#373435" stroke-width="0.755906" stroke-miterlimit="22.9256"/>
<path fill-rule="evenodd" clip-rule="evenodd" d="M252.754 7.59961H259.737H283.432V14.352H259.737V28.7687H279.691V35.5211H259.737V54.7944H252.754V14.352H252.721V7.59961H252.754Z" fill="#373435" stroke="#373435" stroke-width="0.755906" stroke-miterlimit="22.9256"/>
<path fill-rule="evenodd" clip-rule="evenodd" d="M300.709 7.59961H307.692H321V14.352H307.692V54.7944H300.709V14.352H287.501V7.59961H300.709Z" fill="#373435" stroke="#373435" stroke-width="0.755906" stroke-miterlimit="22.9256"/>
<path fill-rule="evenodd" clip-rule="evenodd" d="M187.31 7.59962C193.17 7.6661 198.38 9.37629 201.979 12.4415L197.771 17.3819C195.082 15.1471 192.045 13.6973 187.354 13.5136C181.993 13.3036 178.993 14.3868 177.219 17.6785C176.556 18.9091 176.741 21.6362 176.986 23.4432C177.843 26.8177 188.255 28.4134 191.523 28.9385C197.883 29.9605 199.15 32.103 199.796 32.7075C201.095 33.9217 202.489 37.6822 202.789 41.0355C202.611 42.2108 202.742 44.2256 202.36 45.2412C199.065 53.997 191.324 56.05 181.454 55.0435C175.75 54.4617 171.071 52.2771 167.973 48.9073L172.313 44.05C174.208 46.5849 179.902 48.1298 184.43 48.5799C189.606 49.0945 191.81 48.7665 194.158 45.8307C195.036 44.7332 195.886 42.8557 195.975 41.0355C196.224 37.8552 194.195 34.3893 185.527 34.2024C181.928 34.125 175.332 31.9617 172.541 29.2655C170.649 27.437 169.963 25.0857 169.64 23.4432C169.6 22.256 169.689 21.0953 169.82 20.022C171.054 9.9438 176.984 7.48274 187.31 7.59962Z" fill="#373435" stroke="#373435" stroke-width="0.755906" stroke-miterlimit="22.9256"/>
<path fill-rule="evenodd" clip-rule="evenodd" d="M104.964 9.18307H104.968C105.064 7.68788 106.948 6.49512 109.258 6.49512C111.568 6.49512 113.451 7.68788 113.548 9.18307H113.552V9.3038V51.173V51.2724H113.549C113.464 52.6966 111.579 53.8357 109.264 53.8357C106.95 53.8357 105.064 52.6966 104.98 51.2724H104.964V9.3038V9.18307Z" fill="#4756A3"/>
<path fill-rule="evenodd" clip-rule="evenodd" d="M136.831 7.60244H136.894C137.589 6.73269 138.819 6.1543 140.222 6.1543C142.353 6.1543 144.088 7.48991 144.148 9.1549L161.606 49.3323L161.674 49.5868C161.874 49.9425 161.984 50.3336 161.984 50.7442C161.984 52.3829 160.226 53.7115 158.056 53.7115C155.973 53.7115 154.27 52.4873 154.137 50.9395H154.127L147.586 35.8938L128.655 45.5748L126.344 50.9395C126.089 52.3839 124.506 53.4965 122.589 53.4965C120.496 53.4965 118.799 52.1679 118.799 50.5292C118.799 50.446 118.803 50.3638 118.812 50.2822L118.812 50.2821L118.812 50.2807C118.842 50.0018 118.92 49.7337 119.042 49.4821L119.54 47.749L136.351 8.71584C136.421 8.39517 136.555 8.0914 136.74 7.81275L136.831 7.60244ZM140.17 18.8374L132.449 36.7644L145.142 30.2734L140.17 18.8374Z" fill="#4756A3"/>
<path d="M45.965 83.5181L46.1268 2.05766C46.1252 2.04025 46.3343 6.87999 45.8703 5.34595C44.2369 -0.0534084 26.7345 1.28185 21.8955 13.3271C11.0012 12.42 3.92438 21.2949 10.116 32.2694C3.06589 36.4495 -2.12423 46.2298 6.52013 53.6095C0.622716 60.9387 7.75444 74.9974 19.4156 71.4729C25.7948 94.8912 45.965 73.7002 45.965 83.5181ZM45.965 83.5181C45.9243 85.5154 45.9359 85.4743 45.965 83.5181Z" stroke="#ED3237" stroke-width="3.77953" stroke-miterlimit="22.9256"/>
<path d="M46.0954 32.7777C40.3123 31.6406 35.6163 33.0972 32.5292 38.3931C29.8957 42.59 25.8982 44.0108 20.8232 43.2386C20.369 38.1339 18.1369 35.9788 14.4705 36.2156" stroke="#ED3237" stroke-width="3.77953" stroke-miterlimit="22.9256"/>
<path d="M20.7936 43.2812C19.7552 47.7204 16.4492 48.6677 11.9413 47.7646" stroke="#ED3237" stroke-width="3.77953" stroke-miterlimit="22.9256"/>
<path d="M46.0931 19.1398C39.3032 18.7129 36.0814 14.3941 34.2721 7.65332" stroke="#ED3237" stroke-width="3.77953" stroke-miterlimit="22.9256"/>
<path d="M21.8954 13.3271C23.9782 20.5213 28.7437 27.0148 37.5034 26.78" stroke="#ED3237" stroke-width="3.77953" stroke-miterlimit="22.9256"/>
<path d="M26.8387 22.583C23.4045 23.9899 20.8497 26.3003 20.1824 31.3556" stroke="#ED3237" stroke-width="3.77953" stroke-miterlimit="22.9256"/>
<path d="M46.0407 45.5704C40.1206 45.45 33.9413 48.9337 33.4116 56.3551C26.5979 56.3746 20.6064 61.4587 19.4158 71.4724" stroke="#ED3237" stroke-width="3.77953" stroke-miterlimit="22.9256"/>
<path d="M45.7945 60.0742C39.7388 62.1165 36.4981 66.6086 35.1266 72.7267" stroke="#ED3237" stroke-width="3.77953" stroke-miterlimit="22.9256"/>
<path d="M22.4138 62.5334C18.6043 60.6303 16.2876 57.4922 15.7583 52.875" stroke="#ED3237" stroke-width="3.77953" stroke-miterlimit="22.9256"/>
<path d="M49.9075 4.32741C49.898 2.79923 49.9125 1.10092 49.8964 2.5519L50.394 83.2772C50.3905 84.0411 50.4058 83.7051 50.3914 82.8346" stroke="#3E4095" stroke-width="3.77953" stroke-miterlimit="22.9256"/>
<path d="M50.3503 76.1992C58.0996 86.2863 70.4246 85.3453 71.9114 70.2419C84.236 73.211 90.3627 65.2471 86.8602 56.1788L50.0578 28.7383" stroke="#3E4095" stroke-width="3.77953" stroke-miterlimit="22.9256"/>
<path d="M59.7405 35.96L60.1946 52.0792L50.3502 76.2013" stroke="#3E4095" stroke-width="3.77953" stroke-miterlimit="22.9256"/>
<path d="M60.1946 52.0781L84.573 54.4746" stroke="#3E4095" stroke-width="3.77953" stroke-miterlimit="22.9256"/>
<path d="M71.9114 70.2402L60.1867 51.791" stroke="#3E4095" stroke-width="3.77953" stroke-miterlimit="22.9256"/>
<path d="M59.7405 35.9569L83.0936 27.6872C83.3944 21.8041 81.8949 16.7664 76.1 13.7461" stroke="#3E4095" stroke-width="3.77953" stroke-miterlimit="22.9256"/>
<path d="M83.0936 27.6875C90.078 33.467 92.0618 40.5076 91.0369 48.3072" stroke="#3E4095" stroke-width="3.77953" stroke-miterlimit="22.9256"/>
<path d="M49.9941 7.93406C59.5047 1.33591 66.2199 2.46052 70.1215 11.3578L50.0578 28.7366" stroke="#3E4095" stroke-width="3.77953" stroke-miterlimit="22.9256"/>
<path d="M70.6708 14.1479C72.1866 14.1479 73.4155 12.987 73.4155 11.5549C73.4155 10.1229 72.1866 8.96191 70.6708 8.96191C69.1549 8.96191 67.9261 10.1229 67.9261 11.5549C67.9261 12.987 69.1549 14.1479 70.6708 14.1479Z" fill="#3E4095" stroke="#3E4095" stroke-width="0.755906" stroke-miterlimit="22.9256"/>
<path d="M90.7798 52.4909C92.3943 52.4909 93.7031 51.2326 93.7031 49.6805C93.7031 48.1284 92.3943 46.8701 90.7798 46.8701C89.1654 46.8701 87.8566 48.1284 87.8566 49.6805C87.8566 51.2326 89.1654 52.4909 90.7798 52.4909Z" fill="#3E4095" stroke="#3E4095" stroke-width="0.755906" stroke-miterlimit="22.9256"/>
<path d="M87.5414 58.1911C89.1558 58.1911 90.4646 56.9328 90.4646 55.3807C90.4646 53.8286 89.1558 52.5703 87.5414 52.5703C85.9269 52.5703 84.6181 53.8286 84.6181 55.3807C84.6181 56.9328 85.9269 58.1911 87.5414 58.1911Z" fill="#3E4095" stroke="#3E4095" stroke-width="0.755906" stroke-miterlimit="22.9256"/>
<path d="M83.0936 30.4996C84.7081 30.4996 86.0168 29.2414 86.0168 27.6893C86.0168 26.1372 84.7081 24.8789 83.0936 24.8789C81.4791 24.8789 80.1703 26.1372 80.1703 27.6893C80.1703 29.2414 81.4791 30.4996 83.0936 30.4996Z" fill="#3E4095" stroke="#3E4095" stroke-width="0.755906" stroke-miterlimit="22.9256"/>
<path d="M60.1946 54.8883C61.8091 54.8883 63.1179 53.6301 63.1179 52.0779C63.1179 50.5258 61.8091 49.2676 60.1946 49.2676C58.5801 49.2676 57.2714 50.5258 57.2714 52.0779C57.2714 53.6301 58.5801 54.8883 60.1946 54.8883Z" fill="#3E4095" stroke="#3E4095" stroke-width="0.755906" stroke-miterlimit="22.9256"/>
<path d="M117.871 74.6211V64.7017H120.61C124.106 64.7017 125.853 66.3135 125.853 69.5369C125.853 71.0679 125.367 72.2992 124.394 73.2307C123.425 74.1576 122.127 74.6211 120.499 74.6211H117.871ZM119.033 65.7532V73.5697H120.513C121.814 73.5697 122.826 73.2215 123.55 72.5252C124.274 71.8288 124.636 70.842 124.636 69.5646C124.636 67.0236 123.285 65.7532 120.582 65.7532H119.033ZM133.061 74.6211H127.804V64.7017H132.84V65.7532H128.966V69.0527H132.549V70.0972H128.966V73.5697H133.061V74.6211ZM134.507 74.2199V72.8503C134.664 72.9886 134.85 73.1131 135.067 73.2238C135.289 73.3345 135.519 73.429 135.759 73.5074C136.003 73.5812 136.248 73.6388 136.492 73.6803C136.737 73.7219 136.963 73.7426 137.17 73.7426C137.885 73.7426 138.417 73.6112 138.768 73.3483C139.123 73.0809 139.301 72.6981 139.301 72.2001C139.301 71.9326 139.241 71.6997 139.121 71.5014C139.005 71.3031 138.844 71.1233 138.636 70.9619C138.429 70.7958 138.182 70.6391 137.896 70.4915C137.615 70.3393 137.311 70.1802 136.983 70.0142C136.637 69.839 136.315 69.6614 136.015 69.4816C135.715 69.3017 135.455 69.1034 135.233 68.8867C135.012 68.6699 134.837 68.4255 134.707 68.1535C134.583 67.8768 134.521 67.554 134.521 67.185C134.521 66.7331 134.62 66.3411 134.818 66.0091C135.016 65.6725 135.277 65.3958 135.6 65.179C135.923 64.9623 136.289 64.8009 136.7 64.6948C137.115 64.5888 137.537 64.5357 137.966 64.5357C138.943 64.5357 139.656 64.6533 140.103 64.8885V66.1959C139.517 65.7901 138.766 65.5872 137.848 65.5872C137.594 65.5872 137.341 65.6148 137.087 65.6702C136.833 65.7209 136.607 65.8062 136.409 65.9261C136.211 66.046 136.049 66.2005 135.925 66.3896C135.8 66.5786 135.738 66.8092 135.738 67.0813C135.738 67.3349 135.784 67.554 135.876 67.7384C135.973 67.9229 136.114 68.0912 136.298 68.2434C136.483 68.3956 136.707 68.5431 136.969 68.6861C137.237 68.829 137.544 68.9858 137.889 69.1565C138.245 69.3317 138.581 69.5162 138.899 69.7098C139.218 69.9035 139.497 70.118 139.736 70.3531C139.976 70.5883 140.165 70.8489 140.304 71.1348C140.447 71.4207 140.518 71.7481 140.518 72.117C140.518 72.6059 140.421 73.0209 140.227 73.3622C140.038 73.6988 139.78 73.9732 139.453 74.1853C139.13 74.3974 138.756 74.5496 138.332 74.6418C137.908 74.7387 137.461 74.7871 136.99 74.7871C136.833 74.7871 136.64 74.7733 136.409 74.7456C136.179 74.7225 135.943 74.6857 135.704 74.6349C135.464 74.5888 135.235 74.5312 135.019 74.462C134.807 74.3882 134.636 74.3075 134.507 74.2199ZM150.174 74.6211H148.888L147.836 71.8404H143.631L142.642 74.6211H141.348L145.153 64.7017H146.356L150.174 74.6211ZM147.456 70.7958L145.9 66.5694C145.849 66.4311 145.798 66.2097 145.747 65.9053H145.72C145.674 66.1867 145.621 66.408 145.561 66.5694L144.018 70.7958H147.456ZM158.752 74.6211H157.368L155.708 71.8404C155.556 71.5821 155.409 71.3631 155.266 71.1832C155.123 70.9988 154.975 70.8489 154.823 70.7336C154.675 70.6183 154.514 70.5353 154.339 70.4846C154.168 70.4292 153.974 70.4016 153.758 70.4016H152.803V74.6211H151.641V64.7017H154.602C155.035 64.7017 155.434 64.7571 155.798 64.8678C156.167 64.9738 156.485 65.1375 156.753 65.3589C157.025 65.5802 157.237 65.8569 157.389 66.189C157.541 66.5164 157.617 66.9014 157.617 67.3441C157.617 67.69 157.564 68.0082 157.458 68.2987C157.357 68.5846 157.209 68.8406 157.016 69.0665C156.827 69.2925 156.596 69.4862 156.324 69.6476C156.056 69.8044 155.754 69.9266 155.418 70.0142V70.0419C155.584 70.1157 155.727 70.201 155.847 70.2978C155.971 70.39 156.089 70.5007 156.199 70.6298C156.31 70.759 156.418 70.9065 156.525 71.0725C156.635 71.2339 156.757 71.423 156.891 71.6398L158.752 74.6211ZM152.803 65.7532V69.3501H154.38C154.671 69.3501 154.938 69.3063 155.183 69.2187C155.432 69.1311 155.646 69.0066 155.826 68.8452C156.006 68.6792 156.146 68.4786 156.248 68.2434C156.349 68.0036 156.4 67.7361 156.4 67.441C156.4 66.9107 156.227 66.4979 155.881 66.2028C155.54 65.903 155.044 65.7532 154.394 65.7532H152.803ZM167.232 74.6211H165.849L164.189 71.8404C164.037 71.5821 163.889 71.3631 163.746 71.1832C163.603 70.9988 163.456 70.8489 163.303 70.7336C163.156 70.6183 162.994 70.5353 162.819 70.4846C162.649 70.4292 162.455 70.4016 162.238 70.4016H161.284V74.6211H160.121V64.7017H163.082C163.516 64.7017 163.914 64.7571 164.279 64.8678C164.648 64.9738 164.966 65.1375 165.233 65.3589C165.505 65.5802 165.718 65.8569 165.87 66.189C166.022 66.5164 166.098 66.9014 166.098 67.3441C166.098 67.69 166.045 68.0082 165.939 68.2987C165.837 68.5846 165.69 68.8406 165.496 69.0665C165.307 69.2925 165.077 69.4862 164.804 69.6476C164.537 69.8044 164.235 69.9266 163.898 70.0142V70.0419C164.064 70.1157 164.207 70.201 164.327 70.2978C164.452 70.39 164.569 70.5007 164.68 70.6298C164.791 70.759 164.899 70.9065 165.005 71.0725C165.116 71.2339 165.238 71.423 165.372 71.6398L167.232 74.6211ZM161.284 65.7532V69.3501H162.861C163.151 69.3501 163.419 69.3063 163.663 69.2187C163.912 69.1311 164.127 69.0066 164.306 68.8452C164.486 68.6792 164.627 68.4786 164.728 68.2434C164.83 68.0036 164.881 67.7361 164.881 67.441C164.881 66.9107 164.708 66.4979 164.362 66.2028C164.021 65.903 163.525 65.7532 162.875 65.7532H161.284ZM172.462 74.7871C171.055 74.7871 169.928 74.3237 169.079 73.3967C168.235 72.4698 167.813 71.2639 167.813 69.779C167.813 68.1834 168.245 66.9107 169.107 65.9607C169.969 65.0107 171.143 64.5357 172.628 64.5357C173.997 64.5357 175.1 64.9969 175.934 65.9192C176.774 66.8415 177.193 68.0474 177.193 69.5369C177.193 71.1555 176.764 72.4352 175.907 73.376C175.049 74.3167 173.901 74.7871 172.462 74.7871ZM172.545 65.5872C171.503 65.5872 170.656 65.963 170.006 66.7147C169.356 67.4663 169.031 68.4532 169.031 69.6753C169.031 70.8973 169.347 71.8819 169.979 72.6289C170.615 73.3714 171.443 73.7426 172.462 73.7426C173.55 73.7426 174.408 73.3875 175.035 72.6773C175.662 71.9672 175.976 70.9734 175.976 69.696C175.976 68.3863 175.671 67.3741 175.063 66.6593C174.454 65.9445 173.615 65.5872 172.545 65.5872ZM184.29 74.6211H179.144V64.7017H180.306V73.5697H184.29V74.6211ZM190.959 74.6211H185.812V64.7017H186.974V73.5697H190.959V74.6211ZM195.994 74.7871C194.588 74.7871 193.46 74.3237 192.612 73.3967C191.768 72.4698 191.346 71.2639 191.346 69.779C191.346 68.1834 191.777 66.9107 192.639 65.9607C193.502 65.0107 194.675 64.5357 196.16 64.5357C197.53 64.5357 198.632 64.9969 199.467 65.9192C200.306 66.8415 200.726 68.0474 200.726 69.5369C200.726 71.1555 200.297 72.4352 199.439 73.376C198.581 74.3167 197.433 74.7871 195.994 74.7871ZM196.077 65.5872C195.035 65.5872 194.189 65.963 193.539 66.7147C192.889 67.4663 192.563 68.4532 192.563 69.6753C192.563 70.8973 192.879 71.8819 193.511 72.6289C194.147 73.3714 194.975 73.7426 195.994 73.7426C197.083 73.7426 197.94 73.3875 198.568 72.6773C199.195 71.9672 199.508 70.9734 199.508 69.696C199.508 68.3863 199.204 67.3741 198.595 66.6593C197.987 65.9445 197.147 65.5872 196.077 65.5872ZM206.564 74.6211V64.7017H209.303C212.799 64.7017 214.546 66.3135 214.546 69.5369C214.546 71.0679 214.06 72.2992 213.087 73.2307C212.118 74.1576 210.82 74.6211 209.192 74.6211H206.564ZM207.726 65.7532V73.5697H209.206C210.507 73.5697 211.519 73.2215 212.243 72.5252C212.967 71.8288 213.329 70.842 213.329 69.5646C213.329 67.0236 211.978 65.7532 209.276 65.7532H207.726ZM221.754 74.6211H216.497V64.7017H221.533V65.7532H217.659V69.0527H221.242V70.0972H217.659V73.5697H221.754V74.6211ZM227.087 74.2199V72.8503C227.244 72.9886 227.431 73.1131 227.648 73.2238C227.869 73.3345 228.1 73.429 228.339 73.5074C228.584 73.5812 228.828 73.6388 229.073 73.6803C229.317 73.7219 229.543 73.7426 229.751 73.7426C230.465 73.7426 230.998 73.6112 231.348 73.3483C231.704 73.0809 231.881 72.6981 231.881 72.2001C231.881 71.9326 231.821 71.6997 231.701 71.5014C231.586 71.3031 231.425 71.1233 231.217 70.9619C231.01 70.7958 230.763 70.6391 230.477 70.4915C230.196 70.3393 229.891 70.1802 229.564 70.0142C229.218 69.839 228.895 69.6614 228.595 69.4816C228.296 69.3017 228.035 69.1034 227.814 68.8867C227.592 68.6699 227.417 68.4255 227.288 68.1535C227.164 67.8768 227.101 67.554 227.101 67.185C227.101 66.7331 227.2 66.3411 227.399 66.0091C227.597 65.6725 227.858 65.3958 228.18 65.179C228.503 64.9623 228.87 64.8009 229.28 64.6948C229.695 64.5888 230.117 64.5357 230.546 64.5357C231.524 64.5357 232.236 64.6533 232.683 64.8885V66.1959C232.098 65.7901 231.346 65.5872 230.428 65.5872C230.175 65.5872 229.921 65.6148 229.668 65.6702C229.414 65.7209 229.188 65.8062 228.99 65.9261C228.791 66.046 228.63 66.2005 228.505 66.3896C228.381 66.5786 228.319 66.8092 228.319 67.0813C228.319 67.3349 228.365 67.554 228.457 67.7384C228.554 67.9229 228.695 68.0912 228.879 68.2434C229.063 68.3956 229.287 68.5431 229.55 68.6861C229.817 68.829 230.124 68.9858 230.47 69.1565C230.825 69.3317 231.162 69.5162 231.48 69.7098C231.798 69.9035 232.077 70.118 232.317 70.3531C232.557 70.5883 232.746 70.8489 232.884 71.1348C233.027 71.4207 233.099 71.7481 233.099 72.117C233.099 72.6059 233.002 73.0209 232.808 73.3622C232.619 73.6988 232.361 73.9732 232.033 74.1853C231.71 74.3974 231.337 74.5496 230.913 74.6418C230.488 74.7387 230.041 74.7871 229.571 74.7871C229.414 74.7871 229.22 74.7733 228.99 74.7456C228.759 74.7225 228.524 74.6857 228.284 74.6349C228.044 74.5888 227.816 74.5312 227.599 74.462C227.387 74.3882 227.217 74.3075 227.087 74.2199ZM239.075 74.7871C237.669 74.7871 236.541 74.3237 235.693 73.3967C234.849 72.4698 234.427 71.2639 234.427 69.779C234.427 68.1834 234.858 66.9107 235.72 65.9607C236.583 65.0107 237.756 64.5357 239.241 64.5357C240.611 64.5357 241.713 64.9969 242.548 65.9192C243.387 66.8415 243.806 68.0474 243.806 69.5369C243.806 71.1555 243.378 72.4352 242.52 73.376C241.662 74.3167 240.514 74.7871 239.075 74.7871ZM239.158 65.5872C238.116 65.5872 237.27 65.963 236.619 66.7147C235.969 67.4663 235.644 68.4532 235.644 69.6753C235.644 70.8973 235.96 71.8819 236.592 72.6289C237.228 73.3714 238.056 73.7426 239.075 73.7426C240.163 73.7426 241.021 73.3875 241.648 72.6773C242.275 71.9672 242.589 70.9734 242.589 69.696C242.589 68.3863 242.285 67.3741 241.676 66.6593C241.067 65.9445 240.228 65.5872 239.158 65.5872ZM250.793 65.7532H246.919V69.1841H250.502V70.2286H246.919V74.6211H245.757V64.7017H250.793V65.7532ZM258.54 65.7532H255.676V74.6211H254.514V65.7532H251.658V64.7017H258.54V65.7532ZM272.167 64.7017L269.366 74.6211H268.003L265.962 67.3718C265.875 67.0628 265.822 66.7262 265.803 66.3619H265.776C265.748 66.7031 265.688 67.0352 265.596 67.358L263.541 74.6211H262.193L259.287 64.7017H260.567L262.677 72.3107C262.764 72.6289 262.82 72.961 262.843 73.3068H262.877C262.9 73.0624 262.972 72.7304 263.092 72.3107L265.285 64.7017H266.398L268.501 72.3661C268.575 72.6289 268.63 72.9379 268.667 73.293H268.695C268.713 73.0532 268.775 72.735 268.882 72.3384L270.908 64.7017H272.167ZM280.772 74.6211H279.486L278.434 71.8404H274.229L273.239 74.6211H271.946L275.75 64.7017H276.954L280.772 74.6211ZM278.054 70.7958L276.497 66.5694C276.447 66.4311 276.396 66.2097 276.345 65.9053H276.318C276.271 66.1867 276.218 66.408 276.158 66.5694L274.616 70.7958H278.054ZM289.35 74.6211H287.966L286.306 71.8404C286.154 71.5821 286.006 71.3631 285.863 71.1832C285.72 70.9988 285.573 70.8489 285.421 70.7336C285.273 70.6183 285.112 70.5353 284.936 70.4846C284.766 70.4292 284.572 70.4016 284.355 70.4016H283.401V74.6211H282.239V64.7017H285.199C285.633 64.7017 286.032 64.7571 286.396 64.8678C286.765 64.9738 287.083 65.1375 287.351 65.3589C287.623 65.5802 287.835 65.8569 287.987 66.189C288.139 66.5164 288.215 66.9014 288.215 67.3441C288.215 67.69 288.162 68.0082 288.056 68.2987C287.955 68.5846 287.807 68.8406 287.613 69.0665C287.424 69.2925 287.194 69.4862 286.922 69.6476C286.654 69.8044 286.352 69.9266 286.016 70.0142V70.0419C286.182 70.1157 286.325 70.201 286.444 70.2978C286.569 70.39 286.687 70.5007 286.797 70.6298C286.908 70.759 287.016 70.9065 287.122 71.0725C287.233 71.2339 287.355 71.423 287.489 71.6398L289.35 74.6211ZM283.401 65.7532V69.3501H284.978C285.269 69.3501 285.536 69.3063 285.78 69.2187C286.029 69.1311 286.244 69.0066 286.424 68.8452C286.604 68.6792 286.744 68.4786 286.846 68.2434C286.947 68.0036 286.998 67.7361 286.998 67.441C286.998 66.9107 286.825 66.4979 286.479 66.2028C286.138 65.903 285.642 65.7532 284.992 65.7532H283.401ZM295.976 74.6211H290.719V64.7017H295.755V65.7532H291.881V69.0527H295.465V70.0972H291.881V73.5697H295.976V74.6211Z" fill="#96989A"/>
</svg>

